<svg xmlns="http://www.w3.org/2000/svg" viewBox="0 0 50 50">
    <defs>
        <style>
            .cls-1{fill:#40c1ac;}.cls-2,.cls-3{fill:#e6f4ef;}.cls-3{fill-rule:evenodd;}.cls-4{fill:#062140;}.cls-5{fill:none;}
        </style>
    </defs>
    <title>Sivert</title>
    <circle class="cls-1" cx="25" cy="25" r="25"/>
    <rect class="cls-2" x="12.35" y="15.06" width="25.31" height="19.1" rx="6"/>
    <path class="cls-3"
          d="M39.23,27.13a1.58,1.58,0,0,1-1.58-1.58V23.66a1.58,1.58,0,0,1,3.16,0v1.89A1.58,1.58,0,0,1,39.23,27.13Z"/>
    <path class="cls-3"
          d="M10.77,27.13a1.58,1.58,0,0,1-1.58-1.58V23.66a1.58,1.58,0,0,1,3.16,0v1.89A1.58,1.58,0,0,1,10.77,27.13Z"/>
    <path class="cls-4"
          d="M25,30.39c-1.38,0-2.58-.82-3.58-2.43a1,1,0,0,1,.32-1.38,1,1,0,0,1,1.38.33c1.21,2,2.55,2,3.76,0a1,1,0,0,1,1.38-.33A1,1,0,0,1,28.58,28C27.58,29.57,26.38,30.39,25,30.39Z"/>
    <circle class="cls-4" cx="19.92" cy="22.65" r="1.5"/>
    <circle class="cls-4" cx="30.08" cy="22.65" r="1.5"/>
    <path class="cls-4"
          d="M39.23,21.09a2.25,2.25,0,0,0-.58.07v-.1a7,7,0,0,0-7-7H26v-3a2.5,2.5,0,1,0-2,0v3H18.35a7,7,0,0,0-7,7v.1a2.25,2.25,0,0,0-.58-.07,2.58,2.58,0,0,0-2.58,2.57v1.89a2.59,2.59,0,0,0,2.58,2.58,2.25,2.25,0,0,0,.58-.07v.1a7,7,0,0,0,7,7h13.3a7,7,0,0,0,7-7v-.1a2.25,2.25,0,0,0,.58.07,2.59,2.59,0,0,0,2.58-2.58V23.66A2.58,2.58,0,0,0,39.23,21.09ZM11.35,25.55a.58.58,0,1,1-1.16,0V23.66a.58.58,0,0,1,1.16,0Zm25.3,2.61a5,5,0,0,1-5,5H18.35a5,5,0,0,1-5-5v-7.1a5,5,0,0,1,5-5h13.3a5,5,0,0,1,5,5Zm3.16-2.61a.58.58,0,1,1-1.16,0V23.66a.58.58,0,0,1,1.16,0Z"/>
    <path class="cls-5" d="M25,0A25,25,0,0,0,10.75,45.54v-.81a7,7,0,0,1,7-7h14.5a7,7,0,0,1,7,7v.81A25,25,0,0,0,25,0Z"/>
    <path class="cls-2" d="M32.25,37.73H17.75a7,7,0,0,0-7,7v.81a25,25,0,0,0,28.5,0v-.81A7,7,0,0,0,32.25,37.73Z"/>
    <path class="cls-5" d="M25,0A25,25,0,0,0,9.75,44.81v-.08a8,8,0,0,1,8-8h14.5a8,8,0,0,1,8,8v.08A25,25,0,0,0,25,0Z"/>
    <path class="cls-5" d="M32.25,38.73H17.75a6,6,0,0,0-6,6V46.2a25,25,0,0,0,26.5,0V44.73A6,6,0,0,0,32.25,38.73Z"/>
    <path class="cls-4"
          d="M32.25,36.73H17.75a8,8,0,0,0-8,8v.08c.65.49,1.31,1,2,1.39V44.73a6,6,0,0,1,6-6h14.5a6,6,0,0,1,6,6V46.2c.69-.43,1.35-.9,2-1.39v-.08A8,8,0,0,0,32.25,36.73Z"/>
</svg>
